<svg width="27" height="27" viewBox="0 0 27 27" fill="none" xmlns="http://www.w3.org/2000/svg">
<g clip-path="url(#clip0_140_1014)">
<path d="M24.3825 20.8725C23.6593 20.2278 23.0261 19.4887 22.5 18.675C21.9257 17.552 21.5814 16.3255 21.4875 15.0675V11.3625C21.4925 9.38676 20.7758 7.47716 19.4721 5.99253C18.1683 4.5079 16.3674 3.55044 14.4075 3.30005V2.33255C14.4075 2.067 14.302 1.81233 14.1142 1.62456C13.9265 1.43679 13.6718 1.3313 13.4063 1.3313C13.1407 1.3313 12.886 1.43679 12.6983 1.62456C12.5105 1.81233 12.405 2.067 12.405 2.33255V3.31505C10.4627 3.58349 8.68348 4.54674 7.3969 6.02638C6.11032 7.50602 5.40355 9.40178 5.40751 11.3625V15.0675C5.31357 16.3255 4.96934 17.552 4.39501 18.675C3.87817 19.4868 3.25515 20.2259 2.54251 20.8725C2.4625 20.9428 2.39839 21.0293 2.35442 21.1263C2.31045 21.2233 2.28764 21.3286 2.28751 21.435V22.455C2.28751 22.654 2.36652 22.8447 2.50718 22.9854C2.64783 23.126 2.83859 23.205 3.03751 23.205H23.8875C24.0864 23.205 24.2772 23.126 24.4178 22.9854C24.5585 22.8447 24.6375 22.654 24.6375 22.455V21.435C24.6374 21.3286 24.6146 21.2233 24.5706 21.1263C24.5266 21.0293 24.4625 20.9428 24.3825 20.8725ZM3.84751 21.705C4.54531 21.031 5.1597 20.2756 5.67751 19.455C6.40097 18.0987 6.82308 16.6021 6.91501 15.0675V11.3625C6.88526 10.4836 7.0327 9.6076 7.34854 8.7868C7.66438 7.96599 8.14216 7.21714 8.75344 6.58482C9.36472 5.95251 10.097 5.44967 10.9066 5.10625C11.7163 4.76283 12.5868 4.58585 13.4663 4.58585C14.3457 4.58585 15.2162 4.76283 16.0259 5.10625C16.8355 5.44967 17.5678 5.95251 18.1791 6.58482C18.7903 7.21714 19.2681 7.96599 19.584 8.7868C19.8998 9.6076 20.0473 10.4836 20.0175 11.3625V15.0675C20.1094 16.6021 20.5315 18.0987 21.255 19.455C21.7728 20.2756 22.3872 21.031 23.085 21.705H3.84751Z" fill="black"/>
<path d="M13.5 25.71C13.9724 25.6991 14.4258 25.5215 14.7799 25.2086C15.1341 24.8956 15.3661 24.4675 15.435 24H11.49C11.5608 24.4802 11.8037 24.9184 12.1735 25.2329C12.5432 25.5475 13.0146 25.717 13.5 25.71Z" fill="black"/>
</g>
<defs>
<clipPath id="clip0_140_1014">
<rect width="27" height="27" fill="white"/>
</clipPath>
</defs>
</svg>
