<svg width="18" height="18" viewBox="0 0 18 18" fill="none" xmlns="http://www.w3.org/2000/svg">
<path d="M12.623 13.275C12.4353 13.0583 12.3414 12.8123 12.3414 12.537C12.3414 12.2623 12.4353 12.0333 12.623 11.85L14.5178 10H7.16927C6.87909 10 6.63602 9.904 6.44006 9.712C6.24341 9.52067 6.14509 9.28333 6.14509 9C6.14509 8.71667 6.24341 8.479 6.44006 8.287C6.63602 8.09567 6.87909 8 7.16927 8H14.5178L12.623 6.15C12.4182 5.95 12.3158 5.71267 12.3158 5.438C12.3158 5.16267 12.4182 4.925 12.623 4.725C12.8108 4.525 13.0457 4.425 13.3277 4.425C13.609 4.425 13.8435 4.51667 14.0313 4.7L17.7183 8.3C17.8208 8.4 17.8935 8.50833 17.9365 8.625C17.9788 8.74167 18 8.86667 18 9C18 9.13333 17.9788 9.25833 17.9365 9.375C17.8935 9.49167 17.8208 9.6 17.7183 9.7L14.0313 13.3C13.8094 13.5167 13.5663 13.6123 13.3021 13.587C13.0372 13.5623 12.8108 13.4583 12.623 13.275V13.275ZM2.04836 18C1.48506 18 1.00267 17.8043 0.601195 17.413C0.200398 17.021 0 16.55 0 16V2C0 1.45 0.200398 0.979 0.601195 0.587C1.00267 0.195667 1.48506 0 2.04836 0H8.19346C8.48364 0 8.72706 0.0956666 8.9237 0.287C9.11966 0.479 9.21764 0.716667 9.21764 1C9.21764 1.28333 9.11966 1.52067 8.9237 1.712C8.72706 1.904 8.48364 2 8.19346 2H2.04836V16H8.19346C8.48364 16 8.72706 16.096 8.9237 16.288C9.11966 16.4793 9.21764 16.7167 9.21764 17C9.21764 17.2833 9.11966 17.5207 8.9237 17.712C8.72706 17.904 8.48364 18 8.19346 18H2.04836Z" fill="#D93F33"/>
</svg>
