<svg width="26" height="24" viewBox="0 0 26 24" fill="none" xmlns="http://www.w3.org/2000/svg">
<path d="M23.8375 7.80667L16.9809 7.21167L14.3034 0.9075C13.8217 -0.24 12.1784 -0.24 11.6967 0.9075L9.01921 7.22583L2.17671 7.80667C0.930042 7.90583 0.420042 9.46417 1.36921 10.2858L6.56837 14.7908L5.01004 21.4775C4.72671 22.6958 6.04421 23.6592 7.12087 23.0075L13 19.4658L18.8792 23.0217C19.9559 23.6733 21.2734 22.71 20.99 21.4917L19.4317 14.7908L24.6309 10.2858C25.58 9.46417 25.0842 7.90583 23.8375 7.80667ZM13 16.8167L7.67337 20.0325L9.09004 13.9692L4.38671 9.88917L10.5917 9.35083L13 3.64167L15.4225 9.365L21.6275 9.90333L16.9242 13.9833L18.3409 20.0467L13 16.8167Z" fill="#F24E1E"/>
</svg>
